<svg xmlns="http://www.w3.org/2000/svg" viewBox="0 0 24 24" aria-hidden="true">
  <path d="M12 2.16c3.2 0 3.58.01 4.85.07 1.17.05 1.97.24 2.43.4.61.22 1.05.48 1.51.94.46.46.72.9.94 1.51.16.46.35 1.26.4 2.43.06 1.27.07 1.65.07 4.85s-.01 3.58-.07 4.85c-.05 1.17-.24 1.97-.4 2.43-.22.61-.48 1.05-.94 1.51-.46.46-.9.72-1.51.94-.46.16-1.26.35-2.43.4-1.27.06-1.65.07-4.85.07s-3.58-.01-4.85-.07c-1.17-.05-1.97-.24-2.43-.4-.61-.22-1.05-.48-1.51-.94-.46-.46-.72-.9-.94-1.51-.16-.46-.35-1.26-.4-2.43C2.17 15.65 2.16 15.27 2.16 12s.01-3.58.07-4.85c.05-1.17.24-1.97.4-2.43.22-.61.48-1.05.94-1.51.46-.46.9-.72 1.51-.94.46-.16 1.26-.35 2.43-.4C8.42 2.17 8.8 2.16 12 2.16zm0 3.48a6.36 6.36 0 1 0 0 12.72 6.36 6.36 0 0 0 0-12.72zm0 10.5a4.14 4.14 0 1 1 0-8.28 4.14 4.14 0 0 1 0 8.28zm6.41-10.83a1.49 1.49 0 1 1-2.98 0 1.49 1.49 0 0 1 2.98 0z"></path>
</svg>
